<svg width="36" height="33" viewBox="0 0 36 33" fill="none" xmlns="http://www.w3.org/2000/svg">
<path d="M32.5547 0.445312H3.2214C2.51416 0.445313 1.83588 0.726264 1.33578 1.22636C0.835685 1.72646 0.554734 2.40474 0.554734 3.11198V29.7786C0.551721 30.2869 0.695411 30.7853 0.968568 31.2139C1.24172 31.6426 1.63275 31.9834 2.09473 32.1953C2.44776 32.3592 2.83218 32.4445 3.2214 32.4453C3.84741 32.4438 4.45265 32.2206 4.92973 31.8153C4.93769 31.8101 4.94496 31.804 4.9514 31.797L10.3047 27.112H32.5547C33.262 27.112 33.9403 26.831 34.4404 26.3309C34.9404 25.8308 35.2214 25.1526 35.2214 24.4453V3.11198C35.2214 2.40474 34.9404 1.72646 34.4404 1.22636C33.9403 0.726264 33.262 0.445313 32.5547 0.445312ZM32.5547 24.4453H10.3047C9.67677 24.445 9.06885 24.6664 8.58807 25.0703L8.56807 25.0886L3.2214 29.7786V3.11198H32.5547V24.4453ZM11.2214 11.112C11.2214 10.7584 11.3619 10.4192 11.6119 10.1692C11.862 9.91912 12.2011 9.77865 12.5547 9.77865H23.2214C23.575 9.77865 23.9142 9.91912 24.1642 10.1692C24.4143 10.4192 24.5547 10.7584 24.5547 11.112C24.5547 11.4656 24.4143 11.8047 24.1642 12.0548C23.9142 12.3048 23.575 12.4453 23.2214 12.4453H12.5547C12.2011 12.4453 11.862 12.3048 11.6119 12.0548C11.3619 11.8047 11.2214 11.4656 11.2214 11.112ZM11.2214 16.4453C11.2214 16.0917 11.3619 15.7526 11.6119 15.5025C11.862 15.2525 12.2011 15.112 12.5547 15.112H23.2214C23.575 15.112 23.9142 15.2525 24.1642 15.5025C24.4143 15.7526 24.5547 16.0917 24.5547 16.4453C24.5547 16.7989 24.4143 17.1381 24.1642 17.3881C23.9142 17.6382 23.575 17.7786 23.2214 17.7786H12.5547C12.2011 17.7786 11.862 17.6382 11.6119 17.3881C11.3619 17.1381 11.2214 16.7989 11.2214 16.4453Z" fill="#363636"/>
</svg>
