<svg width="26" height="26" viewBox="0 0 26 26" fill="none" xmlns="http://www.w3.org/2000/svg">
<path d="M20.1147 16.9048V22.6156M22.9701 19.7602H17.2593M18.687 9.76635H21.5424C23.1194 9.76635 24.3978 8.48795 24.3978 6.91097V4.05558C24.3978 2.4786 23.1194 1.2002 21.5424 1.2002H18.687C17.11 1.2002 15.8316 2.47859 15.8316 4.05558V6.91097C15.8316 8.48795 17.11 9.76635 18.687 9.76635ZM4.41007 24.0433H7.26546C8.84244 24.0433 10.1208 22.7649 10.1208 21.1879V18.3325C10.1208 16.7555 8.84245 15.4771 7.26546 15.4771H4.41007C2.83309 15.4771 1.55469 16.7555 1.55469 18.3325V21.1879C1.55469 22.7649 2.83309 24.0433 4.41007 24.0433ZM4.41007 9.76635H7.26546C8.84244 9.76635 10.1208 8.48795 10.1208 6.91097V4.05558C10.1208 2.4786 8.84245 1.2002 7.26546 1.2002H4.41007C2.83309 1.2002 1.55469 2.47859 1.55469 4.05558V6.91097C1.55469 8.48795 2.83309 9.76635 4.41007 9.76635Z" stroke="#363636" stroke-width="2.14154" stroke-linecap="round" stroke-linejoin="round"/>
</svg>
