<svg width="784" height="206" viewBox="0 0 784 206" fill="none" xmlns="http://www.w3.org/2000/svg">
<path d="M508.702 130.13C506.733 130.13 505.137 128.534 505.137 126.565V66.3866C505.137 64.4175 506.733 62.8213 508.702 62.8213H514.327C516.296 62.8213 517.892 64.4175 517.892 66.3866V126.565C517.892 128.534 516.296 130.13 514.327 130.13H508.702Z" fill="#363636"/>
<path d="M508.702 130.13C506.733 130.13 505.137 128.534 505.137 126.565V66.3866C505.137 64.4175 506.733 62.8213 508.702 62.8213H514.327C516.296 62.8213 517.892 64.4175 517.892 66.3866V126.565C517.892 128.534 516.296 130.13 514.327 130.13H508.702Z" fill="#363636"/>
<path d="M424.007 130.13C421.498 130.13 419.774 127.609 420.684 125.272L444.106 65.0934C444.639 63.7235 445.959 62.8213 447.429 62.8213H458.647C460.115 62.8213 461.434 63.7215 461.968 65.0892L485.478 125.268C486.391 127.606 484.667 130.13 482.157 130.13H476.01C474.525 130.13 473.196 129.211 472.673 127.822L469.016 118.114C468.493 116.725 467.164 115.805 465.68 115.805H439.804C438.32 115.805 436.991 116.725 436.468 118.114L432.81 127.822C432.287 129.211 430.958 130.13 429.474 130.13H424.007ZM443.143 100.207C442.279 102.536 444.002 105.012 446.486 105.012H458.9C461.384 105.012 463.107 102.536 462.243 100.207L457.255 86.7621C456.994 86.108 456.667 85.2903 456.274 84.3092C455.947 83.2626 455.587 82.1506 455.195 80.9731C454.802 79.7303 454.41 78.4875 454.017 77.2447C453.655 76.0975 453.321 75.0618 453.014 74.1376C452.969 74.0008 452.841 73.9086 452.697 73.9086V73.9086C452.549 73.9086 452.418 74.0056 452.375 74.1472C451.996 75.3988 451.529 76.8238 450.976 78.4221C450.452 80.1228 449.929 81.7254 449.406 83.2299C448.883 84.7343 448.457 85.9118 448.13 86.7621L443.143 100.207Z" fill="#363636"/>
<path d="M424.007 130.13C421.498 130.13 419.774 127.609 420.684 125.272L444.106 65.0934C444.639 63.7235 445.959 62.8213 447.429 62.8213H458.647C460.115 62.8213 461.434 63.7215 461.968 65.0892L485.478 125.268C486.391 127.606 484.667 130.13 482.157 130.13H476.01C474.525 130.13 473.196 129.211 472.673 127.822L469.016 118.114C468.493 116.725 467.164 115.805 465.68 115.805H439.804C438.32 115.805 436.991 116.725 436.468 118.114L432.81 127.822C432.287 129.211 430.958 130.13 429.474 130.13H424.007ZM443.143 100.207C442.279 102.536 444.002 105.012 446.486 105.012H458.9C461.384 105.012 463.107 102.536 462.243 100.207L457.255 86.7621C456.994 86.108 456.667 85.2903 456.274 84.3092C455.947 83.2626 455.587 82.1506 455.195 80.9731C454.802 79.7303 454.41 78.4875 454.017 77.2447C453.655 76.0975 453.321 75.0618 453.014 74.1376C452.969 74.0008 452.841 73.9086 452.697 73.9086V73.9086C452.549 73.9086 452.418 74.0056 452.375 74.1472C451.996 75.3988 451.529 76.8238 450.976 78.4221C450.452 80.1228 449.929 81.7254 449.406 83.2299C448.883 84.7343 448.457 85.9118 448.13 86.7621L443.143 100.207Z" fill="#363636"/>
<path d="M4.12003 130.13C2.15095 130.13 0.554688 128.534 0.554688 126.565V66.3866C0.554688 64.4175 2.15094 62.8213 4.12003 62.8213H9.74471C11.7138 62.8213 13.31 64.4175 13.31 66.3866V115.478C13.31 117.447 14.9063 119.043 16.8754 119.043H43.4973C45.4664 119.043 47.0627 120.639 47.0627 122.608V126.565C47.0627 128.534 45.4664 130.13 43.4973 130.13H4.12003Z" fill="#363636"/>
<path d="M4.12003 130.13C2.15095 130.13 0.554688 128.534 0.554688 126.565V66.3866C0.554688 64.4175 2.15094 62.8213 4.12003 62.8213H9.74471C11.7138 62.8213 13.31 64.4175 13.31 66.3866V115.478C13.31 117.447 14.9063 119.043 16.8754 119.043H43.4973C45.4664 119.043 47.0627 120.639 47.0627 122.608V126.565C47.0627 128.534 45.4664 130.13 43.4973 130.13H4.12003Z" fill="#363636"/>
<path d="M87.425 131.308C81.9304 131.308 77.3515 130.36 73.6884 128.463C70.0254 126.5 67.2781 123.524 65.4465 119.534C63.615 115.544 62.6992 110.474 62.6992 104.326C62.6992 98.1116 63.615 93.0422 65.4465 89.1174C67.2781 85.1273 70.0254 82.1838 73.6884 80.2868C77.3515 78.3244 81.9304 77.3433 87.425 77.3433C92.3963 77.3433 96.55 78.2917 99.886 80.1887C103.287 82.0202 105.838 84.8657 107.539 88.725C109.24 92.5843 110.09 97.5883 110.09 103.737V103.737C110.09 105.688 108.509 107.269 106.558 107.269H78.6778C76.6517 107.269 75.0021 108.962 75.3065 110.966C75.5578 112.619 75.9342 114.101 76.4358 115.413C77.2861 117.572 78.5944 119.207 80.3605 120.319C82.192 121.366 84.5796 121.889 87.5231 121.889C89.0276 121.889 90.4339 121.693 91.7422 121.3C93.0504 120.908 94.1951 120.319 95.1763 119.534C96.1575 118.684 96.9097 117.637 97.433 116.394C97.5571 116.132 97.668 115.862 97.7659 115.583C98.4173 113.724 99.9123 112.077 101.881 112.077H106.525C108.494 112.077 110.13 113.683 109.834 115.63C109.556 117.454 109.053 119.115 108.324 120.613C107.212 123.034 105.61 125.029 103.516 126.599C101.489 128.168 99.101 129.346 96.3537 130.131C93.6064 130.916 90.6302 131.308 87.425 131.308ZM75.9234 94.8936C75.3361 96.9474 77.039 98.8311 79.1752 98.8311H94.0639C96.033 98.8311 97.6905 97.22 97.3436 95.2817C97.2184 94.5818 97.0519 93.9334 96.8443 93.3365C96.3864 91.832 95.6996 90.5892 94.7838 89.608C93.9335 88.6268 92.8869 87.94 91.6441 87.5475C90.4012 87.0897 88.9949 86.8607 87.425 86.8607C84.8739 86.8607 82.7153 87.2859 80.9492 88.1363C79.2485 88.9866 77.9402 90.2949 77.0245 92.061C76.5917 92.8956 76.2247 93.8398 75.9234 94.8936Z" fill="#363636"/>
<path d="M87.425 131.308C81.9304 131.308 77.3515 130.36 73.6884 128.463C70.0254 126.5 67.2781 123.524 65.4465 119.534C63.615 115.544 62.6992 110.474 62.6992 104.326C62.6992 98.1116 63.615 93.0422 65.4465 89.1174C67.2781 85.1273 70.0254 82.1838 73.6884 80.2868C77.3515 78.3244 81.9304 77.3433 87.425 77.3433C92.3963 77.3433 96.55 78.2917 99.886 80.1887C103.287 82.0202 105.838 84.8657 107.539 88.725C109.24 92.5843 110.09 97.5883 110.09 103.737V103.737C110.09 105.688 108.509 107.269 106.558 107.269H78.6778C76.6517 107.269 75.0021 108.962 75.3065 110.966C75.5578 112.619 75.9342 114.101 76.4358 115.413C77.2861 117.572 78.5944 119.207 80.3605 120.319C82.192 121.366 84.5796 121.889 87.5231 121.889C89.0276 121.889 90.4339 121.693 91.7422 121.3C93.0504 120.908 94.1951 120.319 95.1763 119.534C96.1575 118.684 96.9097 117.637 97.433 116.394C97.5571 116.132 97.668 115.862 97.7659 115.583C98.4173 113.724 99.9123 112.077 101.881 112.077H106.525C108.494 112.077 110.13 113.683 109.834 115.63C109.556 117.454 109.053 119.115 108.324 120.613C107.212 123.034 105.61 125.029 103.516 126.599C101.489 128.168 99.101 129.346 96.3537 130.131C93.6064 130.916 90.6302 131.308 87.425 131.308ZM75.9234 94.8936C75.3361 96.9474 77.039 98.8311 79.1752 98.8311H94.0639C96.033 98.8311 97.6905 97.22 97.3436 95.2817C97.2184 94.5818 97.0519 93.9334 96.8443 93.3365C96.3864 91.832 95.6996 90.5892 94.7838 89.608C93.9335 88.6268 92.8869 87.94 91.6441 87.5475C90.4012 87.0897 88.9949 86.8607 87.425 86.8607C84.8739 86.8607 82.7153 87.2859 80.9492 88.1363C79.2485 88.9866 77.9402 90.2949 77.0245 92.061C76.5917 92.8956 76.2247 93.8398 75.9234 94.8936Z" fill="#363636"/>
<path d="M143.303 131.308C141.864 131.308 140.196 131.112 138.299 130.72C136.468 130.392 134.669 129.738 132.903 128.757C131.202 127.776 129.796 126.337 128.684 124.44C127.572 122.478 127.016 119.927 127.016 116.787C127.016 113.254 127.801 110.344 129.37 108.054C130.94 105.699 133.132 103.868 135.944 102.56C138.823 101.186 142.224 100.237 146.149 99.7142C149.112 99.277 152.273 99.0021 155.633 98.8896C157.601 98.8237 159.198 97.2349 159.198 95.2658V94.6121C159.198 93.1076 158.969 91.7666 158.512 90.5892C158.054 89.4118 157.203 88.496 155.96 87.8419C154.783 87.1224 152.984 86.7626 150.564 86.7626C148.144 86.7626 146.247 87.057 144.873 87.6457C143.499 88.2344 142.551 88.9539 142.028 89.8043C141.504 90.6546 141.243 91.5377 141.243 92.4535V92.4535C141.243 93.2121 140.628 93.8271 139.869 93.8271H130.653C130.078 93.8271 129.567 93.4202 129.567 92.8459V92.8459C129.567 92.5189 129.567 92.1264 129.567 91.6685C129.567 88.725 130.45 86.1739 132.216 84.0153C133.982 81.8567 136.435 80.2214 139.575 79.1094C142.715 77.932 146.345 77.3433 150.466 77.3433C155.176 77.3433 159.035 77.9974 162.044 79.3056C165.118 80.6139 167.408 82.4781 168.912 84.8984C170.417 87.3186 171.169 90.2621 171.169 93.729V118.062C171.169 119.305 171.529 120.188 172.248 120.711C172.968 121.235 173.753 121.496 174.603 121.496V121.496C176.337 121.496 177.743 122.902 177.743 124.636V127.324C177.743 128.782 176.851 130.088 175.445 130.474C175.269 130.522 175.087 130.572 174.897 130.621C173.654 131.014 172.117 131.21 170.286 131.21C168.585 131.21 167.048 130.916 165.674 130.327C164.366 129.804 163.254 129.019 162.338 127.972C161.497 127.011 160.877 125.884 160.477 124.592C160.414 124.387 160.227 124.244 160.013 124.244V124.244C159.87 124.244 159.735 124.309 159.644 124.419C158.56 125.723 157.267 126.908 155.764 127.972C154.26 129.019 152.461 129.836 150.368 130.425C148.34 131.014 145.985 131.308 143.303 131.308ZM146.934 121.496C148.896 121.496 150.629 121.202 152.134 120.613C153.704 120.025 154.979 119.207 155.96 118.16C157.007 117.114 157.792 115.838 158.315 114.334C158.904 112.829 159.198 111.194 159.198 109.428V109.428C159.198 108.127 158.144 107.069 156.844 107.107C154.134 107.186 151.583 107.404 149.19 107.76C146.181 108.218 143.761 109.068 141.93 110.311C140.163 111.554 139.28 113.32 139.28 115.609C139.28 116.787 139.542 117.833 140.065 118.749C140.654 119.599 141.504 120.286 142.616 120.81C143.794 121.267 145.233 121.496 146.934 121.496Z" fill="#363636"/>
<path d="M143.303 131.308C141.864 131.308 140.196 131.112 138.299 130.72C136.468 130.392 134.669 129.738 132.903 128.757C131.202 127.776 129.796 126.337 128.684 124.44C127.572 122.478 127.016 119.927 127.016 116.787C127.016 113.254 127.801 110.344 129.37 108.054C130.94 105.699 133.132 103.868 135.944 102.56C138.823 101.186 142.224 100.237 146.149 99.7142C149.112 99.277 152.273 99.0021 155.633 98.8896C157.601 98.8237 159.198 97.2349 159.198 95.2658V94.6121C159.198 93.1076 158.969 91.7666 158.512 90.5892C158.054 89.4118 157.203 88.496 155.96 87.8419C154.783 87.1224 152.984 86.7626 150.564 86.7626C148.144 86.7626 146.247 87.057 144.873 87.6457C143.499 88.2344 142.551 88.9539 142.028 89.8043C141.504 90.6546 141.243 91.5377 141.243 92.4535V92.4535C141.243 93.2121 140.628 93.8271 139.869 93.8271H130.653C130.078 93.8271 129.567 93.4202 129.567 92.8459V92.8459C129.567 92.5189 129.567 92.1264 129.567 91.6685C129.567 88.725 130.45 86.1739 132.216 84.0153C133.982 81.8567 136.435 80.2214 139.575 79.1094C142.715 77.932 146.345 77.3433 150.466 77.3433C155.176 77.3433 159.035 77.9974 162.044 79.3056C165.118 80.6139 167.408 82.4781 168.912 84.8984C170.417 87.3186 171.169 90.2621 171.169 93.729V118.062C171.169 119.305 171.529 120.188 172.248 120.711C172.968 121.235 173.753 121.496 174.603 121.496V121.496C176.337 121.496 177.743 122.902 177.743 124.636V127.324C177.743 128.782 176.851 130.088 175.445 130.474C175.269 130.522 175.087 130.572 174.897 130.621C173.654 131.014 172.117 131.21 170.286 131.21C168.585 131.21 167.048 130.916 165.674 130.327C164.366 129.804 163.254 129.019 162.338 127.972C161.497 127.011 160.877 125.884 160.477 124.592C160.414 124.387 160.227 124.244 160.013 124.244V124.244C159.87 124.244 159.735 124.309 159.644 124.419C158.56 125.723 157.267 126.908 155.764 127.972C154.26 129.019 152.461 129.836 150.368 130.425C148.34 131.014 145.985 131.308 143.303 131.308ZM146.934 121.496C148.896 121.496 150.629 121.202 152.134 120.613C153.704 120.025 154.979 119.207 155.96 118.16C157.007 117.114 157.792 115.838 158.315 114.334C158.904 112.829 159.198 111.194 159.198 109.428V109.428C159.198 108.127 158.144 107.069 156.844 107.107C154.134 107.186 151.583 107.404 149.19 107.76C146.181 108.218 143.761 109.068 141.93 110.311C140.163 111.554 139.28 113.32 139.28 115.609C139.28 116.787 139.542 117.833 140.065 118.749C140.654 119.599 141.504 120.286 142.616 120.81C143.794 121.267 145.233 121.496 146.934 121.496Z" fill="#363636"/>
<path d="M197.952 130.131C195.983 130.131 194.387 128.535 194.387 126.565V82.086C194.387 80.1169 195.983 78.5207 197.952 78.5207H201.233C203.037 78.5207 204.557 79.8684 204.773 81.6595L205.329 86.2778C205.356 86.4985 205.543 86.6645 205.765 86.6645V86.6645C205.945 86.6645 206.106 86.555 206.175 86.389C206.806 84.8599 207.554 83.4472 208.418 82.1511C209.399 80.712 210.642 79.5673 212.146 78.7169C213.651 77.8011 215.482 77.3433 217.641 77.3433C218.687 77.3433 219.636 77.4414 220.486 77.6376V77.6376C221.759 77.9104 222.547 79.0704 222.547 80.3722V85.9446C222.547 87.9136 220.95 89.5099 218.981 89.5099H218.916C216.888 89.5099 215.09 89.8043 213.52 90.393C211.95 90.9163 210.609 91.7666 209.497 92.944C208.45 94.1215 207.665 95.5932 207.142 97.3594C206.619 99.1255 206.357 101.186 206.357 103.541V126.565C206.357 128.535 204.761 130.131 202.792 130.131H197.952Z" fill="#363636"/>
<path d="M197.952 130.131C195.983 130.131 194.387 128.535 194.387 126.565V82.086C194.387 80.1169 195.983 78.5207 197.952 78.5207H201.233C203.037 78.5207 204.557 79.8684 204.773 81.6595L205.329 86.2778C205.356 86.4985 205.543 86.6645 205.765 86.6645V86.6645C205.945 86.6645 206.106 86.555 206.175 86.389C206.806 84.8599 207.554 83.4472 208.418 82.1511C209.399 80.712 210.642 79.5673 212.146 78.7169C213.651 77.8011 215.482 77.3433 217.641 77.3433C218.687 77.3433 219.636 77.4414 220.486 77.6376V77.6376C221.759 77.9104 222.547 79.0704 222.547 80.3722V85.9446C222.547 87.9136 220.95 89.5099 218.981 89.5099H218.916C216.888 89.5099 215.09 89.8043 213.52 90.393C211.95 90.9163 210.609 91.7666 209.497 92.944C208.45 94.1215 207.665 95.5932 207.142 97.3594C206.619 99.1255 206.357 101.186 206.357 103.541V126.565C206.357 128.535 204.761 130.131 202.792 130.131H197.952Z" fill="#363636"/>
<path d="M243.311 130.131C241.342 130.131 239.746 128.535 239.746 126.565V82.086C239.746 80.1169 241.342 78.5207 243.311 78.5207H246.662C248.436 78.5207 249.941 79.8253 250.191 81.5818L250.674 84.9577C250.709 85.2051 250.921 85.3889 251.171 85.3889V85.3889C251.329 85.3889 251.478 85.3142 251.574 85.1889C252.717 83.7021 254.04 82.3951 255.543 81.268C257.178 80.0252 259.01 79.0767 261.038 78.4226C263.131 77.703 265.42 77.3433 267.906 77.3433C271.177 77.3433 274.055 77.932 276.54 79.1094C279.091 80.2868 281.087 82.1838 282.526 84.8002C283.965 87.4167 284.684 90.9163 284.684 95.2989V126.565C284.684 128.535 283.088 130.131 281.119 130.131H276.181C274.212 130.131 272.616 128.535 272.616 126.565V97.4575C272.616 95.6259 272.387 94.1215 271.929 92.944C271.536 91.7012 270.915 90.72 270.065 90.0005C269.28 89.2156 268.298 88.6596 267.121 88.3325C265.944 88.0054 264.635 87.8419 263.196 87.8419C261.038 87.8419 259.075 88.3652 257.309 89.4118C255.609 90.4584 254.235 91.8975 253.188 93.729C252.207 95.5605 251.717 97.6864 251.717 100.107V126.565C251.717 128.535 250.12 130.131 248.151 130.131H243.311Z" fill="#363636"/>
<path d="M346.599 116.089C371.512 116.089 346.599 58.111 391.343 58.111C391.343 58.111 371.941 131.416 346.599 131.513C321.258 131.609 301.855 58.111 301.855 58.111C346.599 58.1111 321.686 116.089 346.599 116.089Z" fill="#363636"/>
<rect opacity="0.1" x="560.559" y="75.8877" width="168.889" height="55.1111" rx="12.6607" fill="url(#paint0_linear_551_330)"/>
<g opacity="0.67">
<g filter="url(#filter0_f_551_330)">
<path d="M640.597 89.8637C651.523 89.8285 642.545 103.518 642.576 113.007C642.606 122.496 573.447 115.671 562.521 115.706C551.595 115.742 559.42 98.2103 559.389 88.7212C559.359 79.2322 629.671 89.8988 640.597 89.8637Z" fill="url(#paint1_linear_551_330)" fill-opacity="0.6"/>
<path d="M630.405 54.6324C684.668 54.4579 728.726 75.9993 728.812 102.746C728.898 129.494 684.979 151.318 630.716 151.492C576.453 151.667 532.395 130.126 532.309 103.378C532.223 76.6312 576.142 54.8069 630.405 54.6324Z" fill="url(#paint2_linear_551_330)"/>
</g>
<g filter="url(#filter1_b_551_330)">
<rect width="184.241" height="55.1696" rx="12.6578" transform="matrix(0.999999 -0.00136618 -0.00237528 0.999997 545.723 76.2842)" fill="url(#paint3_linear_551_330)" fill-opacity="0.33"/>
</g>
</g>
<path d="M602.691 111.11V95.5895H608.233C609.434 95.5895 610.431 95.8117 611.223 96.2562C612.014 96.6937 612.608 97.2944 613.004 98.0583C613.4 98.8152 613.598 99.6694 613.598 100.621C613.598 101.572 613.4 102.43 613.004 103.194C612.608 103.951 612.011 104.551 611.212 104.996C610.421 105.433 609.421 105.652 608.212 105.652H604.421V103.673H607.993C608.764 103.673 609.386 103.541 609.858 103.277C610.337 103.013 610.684 102.652 610.9 102.194C611.122 101.728 611.233 101.204 611.233 100.621C611.233 100.03 611.122 99.5097 610.9 99.0583C610.684 98.5999 610.337 98.2423 609.858 97.9854C609.379 97.7284 608.754 97.5999 607.983 97.5999H605.035V111.11H602.691ZM615.254 111.11V99.4645H617.431V101.329H617.556C617.771 100.704 618.146 100.211 618.681 99.8499C619.223 99.4819 619.834 99.2979 620.514 99.2979C620.653 99.2979 620.816 99.3048 621.004 99.3187C621.198 99.3256 621.355 99.336 621.473 99.3499V101.517C621.382 101.489 621.219 101.461 620.983 101.433C620.754 101.405 620.521 101.392 620.285 101.392C619.75 101.392 619.271 101.506 618.848 101.735C618.431 101.958 618.101 102.267 617.858 102.662C617.622 103.051 617.504 103.503 617.504 104.017V111.11H615.254ZM627.16 111.35C626.021 111.35 625.035 111.103 624.202 110.61C623.368 110.117 622.726 109.423 622.275 108.527C621.83 107.624 621.608 106.572 621.608 105.371C621.608 104.176 621.827 103.124 622.264 102.215C622.709 101.305 623.33 100.596 624.129 100.09C624.934 99.5756 625.879 99.3187 626.962 99.3187C627.622 99.3187 628.261 99.4263 628.879 99.6416C629.497 99.8569 630.053 100.197 630.546 100.662C631.039 101.128 631.428 101.732 631.712 102.475C632.004 103.218 632.15 104.114 632.15 105.162V105.975H622.889V104.277H630.983L629.931 104.84C629.931 104.124 629.82 103.492 629.598 102.944C629.375 102.395 629.042 101.968 628.598 101.662C628.16 101.35 627.615 101.194 626.962 101.194C626.309 101.194 625.75 101.35 625.285 101.662C624.827 101.975 624.476 102.388 624.233 102.902C623.99 103.416 623.868 103.978 623.868 104.59V105.746C623.868 106.544 624.007 107.221 624.285 107.777C624.563 108.333 624.948 108.756 625.441 109.048C625.941 109.34 626.521 109.485 627.181 109.485C627.612 109.485 628 109.423 628.348 109.298C628.702 109.173 629.007 108.985 629.264 108.735C629.521 108.485 629.716 108.176 629.848 107.808L631.993 108.215C631.82 108.84 631.514 109.388 631.077 109.86C630.639 110.333 630.087 110.701 629.421 110.965C628.761 111.221 628.007 111.35 627.16 111.35ZM633.733 111.11V99.4645H635.889V101.381H636.046C636.289 100.735 636.684 100.232 637.233 99.8708C637.789 99.5027 638.448 99.3187 639.212 99.3187C639.99 99.3187 640.639 99.5027 641.16 99.8708C641.688 100.232 642.08 100.735 642.337 101.381H642.462C642.74 100.749 643.181 100.249 643.785 99.8812C644.389 99.5062 645.108 99.3187 645.941 99.3187C646.997 99.3187 647.862 99.652 648.535 100.319C649.209 100.978 649.546 101.975 649.546 103.308V111.11H647.275V103.517C647.275 102.725 647.059 102.155 646.629 101.808C646.198 101.454 645.684 101.277 645.087 101.277C644.351 101.277 643.778 101.506 643.368 101.965C642.966 102.416 642.764 102.989 642.764 103.683V111.11H640.493V103.371C640.493 102.739 640.299 102.232 639.91 101.85C639.521 101.468 639.011 101.277 638.379 101.277C637.948 101.277 637.549 101.392 637.181 101.621C636.82 101.843 636.528 102.155 636.306 102.558C636.091 102.954 635.983 103.412 635.983 103.933V111.11H633.733ZM651.712 111.11V99.4645H653.962V111.11H651.712ZM652.848 97.6729C652.452 97.6729 652.115 97.5409 651.837 97.277C651.559 97.0131 651.421 96.6972 651.421 96.3291C651.421 95.9541 651.559 95.6347 651.837 95.3708C652.115 95.1069 652.452 94.9749 652.848 94.9749C653.237 94.9749 653.57 95.1069 653.848 95.3708C654.132 95.6347 654.275 95.9541 654.275 96.3291C654.275 96.6972 654.132 97.0131 653.848 97.277C653.57 97.5409 653.237 97.6729 652.848 97.6729ZM663.504 106.298V99.4645H665.754V111.11H663.546V109.09H663.421C663.143 109.708 662.712 110.225 662.129 110.642C661.546 111.058 660.816 111.263 659.941 111.256C659.191 111.256 658.528 111.093 657.952 110.767C657.382 110.44 656.934 109.951 656.608 109.298C656.289 108.645 656.129 107.836 656.129 106.871V99.4645H658.379V106.61C658.379 107.395 658.601 108.024 659.046 108.496C659.49 108.968 660.063 109.201 660.764 109.194C661.188 109.194 661.608 109.09 662.025 108.881C662.448 108.673 662.799 108.353 663.077 107.923C663.362 107.492 663.504 106.951 663.504 106.298ZM667.921 111.11V99.4645H670.077V101.381H670.233C670.476 100.735 670.872 100.232 671.421 99.8708C671.976 99.5027 672.636 99.3187 673.4 99.3187C674.178 99.3187 674.827 99.5027 675.348 99.8708C675.875 100.232 676.268 100.735 676.525 101.381H676.65C676.928 100.749 677.368 100.249 677.973 99.8812C678.577 99.5062 679.296 99.3187 680.129 99.3187C681.184 99.3187 682.049 99.652 682.723 100.319C683.396 100.978 683.733 101.975 683.733 103.308V111.11H681.462V103.517C681.462 102.725 681.247 102.155 680.816 101.808C680.386 101.454 679.872 101.277 679.275 101.277C678.539 101.277 677.966 101.506 677.556 101.965C677.153 102.416 676.952 102.989 676.952 103.683V111.11H674.681V103.371C674.681 102.739 674.487 102.232 674.098 101.85C673.709 101.468 673.198 101.277 672.566 101.277C672.136 101.277 671.737 101.392 671.368 101.621C671.007 101.843 670.716 102.155 670.493 102.558C670.278 102.954 670.171 103.412 670.171 103.933V111.11H667.921Z" fill="#363636" fill-opacity="0.8"/>
<defs>
<filter id="filter0_f_551_330" x="477.927" y="0.249935" width="305.267" height="205.625" filterUnits="userSpaceOnUse" color-interpolation-filters="sRGB">
<feFlood flood-opacity="0" result="BackgroundImageFix"/>
<feBlend mode="normal" in="SourceGraphic" in2="BackgroundImageFix" result="shape"/>
<feGaussianBlur stdDeviation="27.1907" result="effect1_foregroundBlur_551_330"/>
</filter>
<filter id="filter1_b_551_330" x="496.349" y="26.7774" width="282.857" height="153.932" filterUnits="userSpaceOnUse" color-interpolation-filters="sRGB">
<feFlood flood-opacity="0" result="BackgroundImageFix"/>
<feGaussianBlur in="BackgroundImageFix" stdDeviation="24.6362"/>
<feComposite in2="SourceAlpha" operator="in" result="effect1_backgroundBlur_551_330"/>
<feBlend mode="normal" in="SourceGraphic" in2="effect1_backgroundBlur_551_330" result="shape"/>
</filter>
<linearGradient id="paint0_linear_551_330" x1="609.277" y1="87.9432" x2="677.935" y2="160.3" gradientUnits="userSpaceOnUse">
<stop stop-color="#917FFB"/>
<stop offset="1" stop-color="#3F2DAF"/>
</linearGradient>
<linearGradient id="paint1_linear_551_330" x1="879.062" y1="-2.42297" x2="879.062" y2="40.4672" gradientUnits="userSpaceOnUse">
<stop stop-color="#14135C"/>
<stop offset="1" stop-color="#582FCD" stop-opacity="0.46"/>
</linearGradient>
<linearGradient id="paint2_linear_551_330" x1="532.307" y1="103.379" x2="728.811" y2="102.747" gradientUnits="userSpaceOnUse">
<stop stop-color="white"/>
<stop offset="0.71875" stop-color="#B16BAE" stop-opacity="0"/>
</linearGradient>
<linearGradient id="paint3_linear_551_330" x1="0" y1="0" x2="109.569" y2="122.151" gradientUnits="userSpaceOnUse">
<stop stop-color="white" stop-opacity="0.8"/>
<stop offset="1" stop-color="white" stop-opacity="0.2"/>
</linearGradient>
</defs>
</svg>
