<svg width="29" height="32" viewBox="0 0 29 32" fill="none" xmlns="http://www.w3.org/2000/svg">
<path opacity="0.8" d="M27.3148 14.1666L3.9815 0.848564C3.58818 0.627932 3.13705 0.532188 2.68802 0.57405C2.239 0.615912 1.81334 0.793398 1.46759 1.08293C1.12183 1.37247 0.872354 1.76034 0.752289 2.19504C0.632223 2.62973 0.647255 3.09067 0.795388 3.51662L5.10094 16.0819C5.10039 16.0865 5.10039 16.0912 5.10094 16.0958C5.10017 16.1004 5.10017 16.1051 5.10094 16.1097L0.795388 28.7027C0.676757 29.0378 0.640233 29.3964 0.68888 29.7485C0.737527 30.1006 0.869927 30.4359 1.07497 30.7263C1.28001 31.0166 1.5517 31.2536 1.86725 31.4172C2.1828 31.5808 2.533 31.6663 2.88844 31.6666C3.27409 31.6656 3.65297 31.5652 3.98844 31.375L27.3093 18.0347C27.6533 17.842 27.9398 17.5612 28.1395 17.2212C28.3391 16.8812 28.4447 16.4942 28.4455 16.0999C28.4462 15.7056 28.3419 15.3182 28.1435 14.9775C27.9451 14.6368 27.6595 14.355 27.3162 14.1611L27.3148 14.1666ZM2.88844 29.4444V29.4319L7.07455 17.2222H15.1107C15.4053 17.2222 15.688 17.1051 15.8963 16.8967C16.1047 16.6884 16.2218 16.4058 16.2218 16.1111C16.2218 15.8164 16.1047 15.5338 15.8963 15.3254C15.688 15.117 15.4053 15 15.1107 15H7.08567L2.89678 2.7944L2.88844 2.77773L26.2218 16.0875L2.88844 29.4444Z" fill="#363636"/>
</svg>
