<svg width="26" height="29" viewBox="0 0 26 29" fill="none" xmlns="http://www.w3.org/2000/svg">
<path d="M9.62313 4.22327C9.91345 2.91682 11.0722 1.9873 12.4105 1.9873H13.5403C14.8786 1.9873 16.0373 2.91682 16.3277 4.22327L16.6174 5.52706C17.5613 5.8966 18.4352 6.40554 19.214 7.02856L20.4906 6.62675C21.7672 6.22495 23.1515 6.7637 23.8207 7.92272L24.3856 8.90111C25.0547 10.0601 24.8291 11.5284 23.8429 12.433L22.8575 13.3369C22.9311 13.8261 22.9692 14.3268 22.9692 14.8365C22.9692 15.3462 22.9311 15.847 22.8575 16.3362L23.8429 17.24C24.8291 18.1447 25.0548 19.6129 24.3856 20.772L23.8207 21.7504C23.1516 22.9094 21.7672 23.4481 20.4906 23.0463L19.214 22.6445C18.4353 23.2675 17.5613 23.7765 16.6174 24.146L16.3277 25.4498C16.0373 26.7563 14.8786 27.6858 13.5403 27.6858H12.4105C11.0722 27.6858 9.91345 26.7563 9.62313 25.4498L9.3334 24.146C8.38951 23.7765 7.51553 23.2675 6.73679 22.6445L5.46015 23.0463C4.18357 23.4481 2.79921 22.9094 2.13005 21.7503L1.56518 20.772C0.896019 19.6129 1.12163 18.1447 2.10788 17.24L3.09331 16.3361C3.0197 15.847 2.98155 15.3462 2.98155 14.8365C2.98155 14.3269 3.0197 13.8261 3.09331 13.3369L2.1079 12.4331C1.12165 11.5284 0.896039 10.0601 1.5652 8.90112L2.13007 7.92272C2.79923 6.76371 4.18359 6.22496 5.46017 6.62676L6.7368 7.02857C7.51554 6.40555 8.38951 5.8966 9.3334 5.52706L9.62313 4.22327Z" stroke="black" stroke-width="2.14154" stroke-linecap="round" stroke-linejoin="round"/>
<path d="M14.4031 14.8365C14.4031 15.625 13.7639 16.2642 12.9754 16.2642C12.1869 16.2642 11.5477 15.625 11.5477 14.8365C11.5477 14.048 12.1869 13.4088 12.9754 13.4088C13.7639 13.4088 14.4031 14.048 14.4031 14.8365Z" stroke="black" stroke-width="2.14154" stroke-linecap="round" stroke-linejoin="round"/>
</svg>
